
<svg version="1.0" xmlns="http://www.w3.org/2000/svg"
 width="626.000000pt" height="626.000000pt" viewBox="0 0 626.000000 626.000000"
 preserveAspectRatio="xMidYMid meet">

<g transform="translate(0.000000,626.000000) scale(0.100000,-0.100000)"
fill="#000000" stroke="none">
<path d="M1532 4969 c-518 -139 -796 -704 -615 -1248 46 -137 87 -207 196
-330 112 -127 243 -220 387 -276 l65 -26 310 158 c289 147 310 160 307 183 -1
13 -6 28 -10 32 -5 5 -118 -42 -253 -103 -259 -118 -289 -131 -289 -125 0 5
229 138 398 231 67 37 122 68 122 70 0 1 -9 28 -21 61 -82 238 -81 532 6 789
33 99 82 187 162 292 l62 81 -52 49 c-64 61 -121 94 -228 136 -80 30 -91 31
-219 31 -117 0 -147 -4 -223 -27 -48 -15 -117 -40 -153 -57 -35 -16 -62 -25
-59 -20 8 13 113 71 175 97 70 29 35 30 -68 2z"/>
<path d="M3350 4968 c64 -28 167 -85 175 -98 3 -5 -24 4 -59 20 -36 17 -105
42 -153 57 -76 23 -106 27 -223 27 -128 0 -139 -1 -219 -31 -118 -46 -165 -76
-254 -162 -159 -154 -282 -386 -306 -581 -21 -163 30 -341 130 -454 18 -22
108 -77 246 -151 255 -139 614 -342 628 -356 7 -7 1 -7 -15 -1 -42 17 -324
145 -515 235 -377 177 -371 174 -420 235 -82 104 -145 251 -145 341 0 17 -5
31 -12 31 -29 0 18 -407 49 -417 4 -2 260 -132 568 -289 l560 -285 45 17 c174
64 353 202 477 369 122 163 191 406 180 630 -14 265 -114 486 -297 658 -120
113 -304 204 -445 222 l-50 6 55 -23z"/>
<path d="M4255 4761 c-22 -10 -49 -26 -60 -34 -19 -15 -18 -15 20 -10 31 4 46
0 68 -17 32 -26 33 -34 7 -60 -28 -28 -96 -27 -126 1 l-23 21 -7 -37 c-4 -25
-10 -33 -17 -26 -6 6 -5 24 5 55 8 25 12 43 7 41 -19 -12 -41 -110 -36 -160
13 -126 100 -211 229 -222 177 -17 310 154 253 326 -9 28 -20 53 -25 56 -4 2
-2 -12 6 -33 7 -20 13 -45 14 -54 0 -31 -17 -20 -24 14 -24 119 -177 192 -291
139z m166 -57 c11 -14 10 -18 -6 -30 -11 -8 -26 -12 -33 -9 -8 3 -18 5 -23 5
-14 0 -11 38 4 43 24 10 45 7 58 -9z"/>
<path d="M4611 4300 l-54 -139 99 -105 c169 -177 277 -344 334 -514 29 -86 33
-110 34 -211 l1 -113 18 58 c87 285 -4 662 -247 1022 -84 124 -87 128 -111
135 -18 6 -26 -7 -74 -133z"/>
<path d="M5040 4205 c5 -14 16 -37 24 -53 23 -45 77 -212 97 -302 26 -112 36
-326 19 -427 -36 -228 -161 -424 -365 -576 -97 -72 -369 -208 -530 -266 -231
-82 -510 -148 -855 -203 l-145 -23 100 -13 c140 -19 776 -22 905 -4 652 92
1003 343 1095 784 70 330 18 647 -145 889 -43 63 -186 219 -201 219 -5 0 -4
-11 1 -25z"/>
<path d="M2344 3514 c39 -59 67 -150 74 -242 l7 -83 61 123 62 124 -105 54
c-133 70 -129 69 -99 24z"/>
<path d="M2653 3362 c-5 -10 -144 -253 -307 -541 -218 -383 -296 -530 -292
-545 8 -33 90 -111 143 -137 36 -17 67 -23 121 -23 l72 -1 250 550 c138 303
253 560 256 572 5 20 -7 28 -113 82 -106 53 -120 57 -130 43z m-8 -146 c18
-13 18 -15 -8 -72 -92 -205 -398 -839 -406 -842 -5 -2 -30 7 -55 20 l-46 23
242 443 c133 243 245 442 248 442 3 0 15 -6 25 -14z"/>
<path d="M2128 3299 c-43 -21 -78 -45 -78 -52 0 -6 38 -94 84 -195 l84 -184
52 91 c28 50 50 97 48 103 -8 34 -104 278 -108 277 -3 0 -40 -18 -82 -40z"/>
<path d="M1811 3136 l-105 -53 50 -7 c82 -12 172 -46 239 -91 l64 -42 -62 123
c-34 68 -66 124 -72 123 -5 0 -57 -24 -114 -53z"/>
<path d="M2952 3064 l-63 -127 49 37 c69 50 149 84 234 98 l71 11 -104 53
c-57 29 -109 53 -114 53 -6 1 -39 -56 -73 -125z"/>
<path d="M2735 2542 c-5 -24 3 -47 39 -114 l46 -84 -45 -22 c-25 -12 -50 -22
-56 -22 -5 0 -19 21 -30 46 -11 26 -21 45 -23 43 -17 -21 -115 -256 -111 -267
8 -22 138 -11 198 18 53 25 135 103 143 136 4 16 -17 61 -71 155 -42 74 -78
135 -80 137 -2 2 -6 -10 -10 -26z"/>
<path d="M5403 1739 c-44 -13 -91 -63 -99 -105 -15 -83 41 -142 158 -165 104
-21 147 -67 96 -103 -29 -20 -110 -20 -163 0 -71 27 -70 27 -87 -10 -14 -28
-14 -36 -4 -45 46 -38 204 -56 278 -32 21 7 51 28 68 47 24 28 30 44 30 82 0
81 -28 104 -167 142 -45 12 -87 28 -93 35 -18 21 -7 58 20 73 31 16 116 10
159 -12 l31 -16 15 36 c8 20 15 40 15 44 0 5 -21 15 -47 24 -50 17 -159 20
-210 5z"/>
<path d="M580 1700 l0 -40 75 0 75 0 0 -195 0 -195 50 0 50 0 2 193 3 192 78
3 77 3 0 39 0 40 -205 0 -205 0 0 -40z"/>
<path d="M1072 1511 c-56 -126 -102 -232 -102 -235 0 -3 23 -6 50 -6 l50 0 25
55 24 56 108 -3 108 -3 24 -52 25 -53 54 0 c46 0 53 2 48 17 -4 9 -50 114
-104 234 l-97 219 -56 0 -56 0 -101 -229z m196 36 c18 -45 32 -85 32 -89 0 -5
-31 -8 -69 -8 -39 0 -72 3 -74 8 -5 8 63 172 72 172 3 0 21 -37 39 -83z"/>
<path d="M1550 1504 l0 -236 163 4 c176 4 205 12 246 64 39 49 15 152 -38 169
-26 8 -26 17 -1 32 10 7 24 30 31 52 10 33 9 44 -7 78 -31 63 -64 73 -241 73
l-153 0 0 -236z m257 155 c32 -12 43 -26 43 -56 0 -37 -36 -53 -122 -53 l-78
0 0 53 c0 30 3 57 7 60 10 11 119 8 150 -4z m47 -208 c25 -27 17 -72 -14 -88
-14 -7 -61 -13 -107 -13 l-83 0 0 60 0 60 93 0 c80 0 97 -3 111 -19z"/>
<path d="M2070 1505 l0 -235 170 0 170 0 0 45 0 45 -120 0 -120 0 0 190 0 190
-50 0 -50 0 0 -235z"/>
<path d="M2480 1505 l0 -235 180 0 180 0 0 45 0 45 -130 0 -130 0 0 55 0 55
115 0 115 0 0 40 0 39 -112 3 -113 3 -3 53 -3 52 124 0 125 0 4 40 4 40 -178
0 -178 0 0 -235z"/>
<path d="M3080 1700 l0 -40 75 0 75 0 0 -195 0 -195 50 0 50 0 2 193 3 192 78
3 77 3 0 39 0 40 -205 0 -205 0 0 -40z"/>
<path d="M3550 1505 l0 -235 180 0 180 0 0 45 0 45 -130 0 -130 0 0 55 0 55
115 0 115 0 0 40 0 39 -112 3 -113 3 0 50 0 50 127 3 128 3 -2 39 -1 40 -179
0 -178 0 0 -235z"/>
<path d="M4010 1505 l0 -235 50 0 49 0 3 145 3 146 119 -146 119 -145 43 0 44
0 0 235 0 235 -55 0 -54 0 -3 -138 -3 -139 -113 139 -113 138 -45 0 -44 0 0
-235z"/>
<path d="M4560 1505 l0 -235 50 0 49 0 3 145 3 144 118 -144 118 -145 45 0 44
0 0 235 0 235 -55 0 -54 0 -3 -140 -3 -140 -114 140 -114 140 -43 0 -44 0 0
-235z"/>
<path d="M5110 1505 l0 -235 50 0 50 0 0 235 0 235 -50 0 -50 0 0 -235z"/>
</g>
</svg>
